<mxfile host="app.diagrams.net" modified="2020-12-16T09:20:06.979Z" agent="5.0 (Windows)" etag="1jzI3oNI9APfWi0-D8_2" version="13.9.4" type="github">
  <diagram id="C5RBs43oDa-KdzZeNtuy" name="Page-1">
    <mxGraphModel dx="1356" dy="593" grid="0" gridSize="10" guides="1" tooltips="1" connect="1" arrows="1" fold="1" page="0" pageScale="1" pageWidth="827" pageHeight="1169" background="none" math="0" shadow="1">
      <root>
        <mxCell id="WIyWlLk6GJQsqaUBKTNV-0" />
        <mxCell id="WIyWlLk6GJQsqaUBKTNV-1" parent="WIyWlLk6GJQsqaUBKTNV-0" />
        <mxCell id="WIyWlLk6GJQsqaUBKTNV-5" value="" style="edgeStyle=orthogonalEdgeStyle;rounded=0;html=1;jettySize=auto;orthogonalLoop=1;fontSize=11;endArrow=classic;endFill=1;endSize=8;strokeWidth=1;shadow=0;labelBackgroundColor=none;fillColor=#f8cecc;strokeColor=#b85450;" parent="WIyWlLk6GJQsqaUBKTNV-1" source="O4DkN6Ki-hs3kH8LSidX-30" target="WIyWlLk6GJQsqaUBKTNV-7" edge="1">
          <mxGeometry x="0.2" y="44" relative="1" as="geometry">
            <mxPoint as="offset" />
          </mxGeometry>
        </mxCell>
        <mxCell id="O4DkN6Ki-hs3kH8LSidX-33" value="" style="edgeStyle=orthogonalEdgeStyle;rounded=1;orthogonalLoop=1;jettySize=auto;html=1;endArrow=classic;endFill=1;fillColor=#d5e8d4;strokeColor=#82b366;" parent="WIyWlLk6GJQsqaUBKTNV-1" source="O4DkN6Ki-hs3kH8LSidX-34" target="WIyWlLk6GJQsqaUBKTNV-12" edge="1">
          <mxGeometry relative="1" as="geometry" />
        </mxCell>
        <mxCell id="WIyWlLk6GJQsqaUBKTNV-6" value="Are the action buttons lit up?" style="rhombus;whiteSpace=wrap;html=1;shadow=0;fontFamily=Helvetica;fontSize=12;align=center;strokeWidth=1;spacing=6;spacingTop=-4;" parent="WIyWlLk6GJQsqaUBKTNV-1" vertex="1">
          <mxGeometry x="107" y="157.2" width="116" height="92.8" as="geometry" />
        </mxCell>
        <mxCell id="O4DkN6Ki-hs3kH8LSidX-3" value="" style="edgeStyle=orthogonalEdgeStyle;rounded=0;orthogonalLoop=1;jettySize=auto;html=1;" parent="WIyWlLk6GJQsqaUBKTNV-1" source="WIyWlLk6GJQsqaUBKTNV-7" target="O4DkN6Ki-hs3kH8LSidX-0" edge="1">
          <mxGeometry relative="1" as="geometry" />
        </mxCell>
        <mxCell id="WIyWlLk6GJQsqaUBKTNV-7" value="Scan badge to log in" style="rounded=1;whiteSpace=wrap;html=1;fontSize=12;glass=0;strokeWidth=1;shadow=0;" parent="WIyWlLk6GJQsqaUBKTNV-1" vertex="1">
          <mxGeometry x="320" y="183.6" width="120" height="40" as="geometry" />
        </mxCell>
        <mxCell id="WIyWlLk6GJQsqaUBKTNV-12" value="Log out of both red and green" style="rounded=1;whiteSpace=wrap;html=1;fontSize=12;glass=0;strokeWidth=1;shadow=0;" parent="WIyWlLk6GJQsqaUBKTNV-1" vertex="1">
          <mxGeometry x="-108" y="183.6" width="120" height="40" as="geometry" />
        </mxCell>
        <mxCell id="O4DkN6Ki-hs3kH8LSidX-5" value="" style="edgeStyle=orthogonalEdgeStyle;rounded=0;orthogonalLoop=1;jettySize=auto;html=1;fillColor=#d5e8d4;strokeColor=#82b366;" parent="WIyWlLk6GJQsqaUBKTNV-1" source="O4DkN6Ki-hs3kH8LSidX-6" target="O4DkN6Ki-hs3kH8LSidX-7" edge="1">
          <mxGeometry relative="1" as="geometry" />
        </mxCell>
        <mxCell id="O4DkN6Ki-hs3kH8LSidX-19" value="" style="edgeStyle=elbowEdgeStyle;rounded=0;orthogonalLoop=1;jettySize=auto;elbow=vertical;html=1;fillColor=#f8cecc;strokeColor=#b85450;" parent="WIyWlLk6GJQsqaUBKTNV-1" source="O4DkN6Ki-hs3kH8LSidX-20" target="O4DkN6Ki-hs3kH8LSidX-18" edge="1">
          <mxGeometry relative="1" as="geometry" />
        </mxCell>
        <mxCell id="O4DkN6Ki-hs3kH8LSidX-0" value="&lt;div&gt;Does the tray&lt;/div&gt;&lt;div&gt;have an item?&lt;/div&gt;" style="rhombus;whiteSpace=wrap;html=1;" parent="WIyWlLk6GJQsqaUBKTNV-1" vertex="1">
          <mxGeometry x="295.75" y="295" width="168.5" height="81.98" as="geometry" />
        </mxCell>
        <mxCell id="O4DkN6Ki-hs3kH8LSidX-1" value="Start" style="rounded=1;whiteSpace=wrap;html=1;fillColor=#d5e8d4;strokeColor=#82b366;" parent="WIyWlLk6GJQsqaUBKTNV-1" vertex="1">
          <mxGeometry x="105" y="46" width="120" height="60" as="geometry" />
        </mxCell>
        <mxCell id="O4DkN6Ki-hs3kH8LSidX-2" value="" style="endArrow=classic;html=1;exitX=0.5;exitY=1;exitDx=0;exitDy=0;entryX=0.5;entryY=0;entryDx=0;entryDy=0;" parent="WIyWlLk6GJQsqaUBKTNV-1" source="O4DkN6Ki-hs3kH8LSidX-1" target="WIyWlLk6GJQsqaUBKTNV-6" edge="1">
          <mxGeometry width="50" height="50" relative="1" as="geometry">
            <mxPoint x="212" y="269" as="sourcePoint" />
            <mxPoint x="262" y="219" as="targetPoint" />
          </mxGeometry>
        </mxCell>
        <mxCell id="O4DkN6Ki-hs3kH8LSidX-8" value="" style="edgeStyle=orthogonalEdgeStyle;rounded=0;orthogonalLoop=1;jettySize=auto;html=1;exitX=0.5;exitY=1;exitDx=0;exitDy=0;entryX=0.5;entryY=0;entryDx=0;entryDy=0;" parent="WIyWlLk6GJQsqaUBKTNV-1" source="O4DkN6Ki-hs3kH8LSidX-7" target="O4DkN6Ki-hs3kH8LSidX-4" edge="1">
          <mxGeometry relative="1" as="geometry">
            <mxPoint x="402" y="590" as="targetPoint" />
          </mxGeometry>
        </mxCell>
        <mxCell id="O4DkN6Ki-hs3kH8LSidX-15" value="" style="edgeStyle=orthogonalEdgeStyle;orthogonalLoop=1;jettySize=auto;html=1;rounded=1;fillColor=#f8cecc;strokeColor=#b85450;entryX=1;entryY=0.5;entryDx=0;entryDy=0;" parent="WIyWlLk6GJQsqaUBKTNV-1" source="O4DkN6Ki-hs3kH8LSidX-16" target="O4DkN6Ki-hs3kH8LSidX-37" edge="1">
          <mxGeometry relative="1" as="geometry">
            <mxPoint x="221" y="614" as="targetPoint" />
          </mxGeometry>
        </mxCell>
        <mxCell id="O4DkN6Ki-hs3kH8LSidX-52" value="" style="edgeStyle=elbowEdgeStyle;rounded=0;orthogonalLoop=1;jettySize=auto;elbow=vertical;html=1;endArrow=classic;endFill=1;fillColor=#d5e8d4;strokeColor=#82b366;" parent="WIyWlLk6GJQsqaUBKTNV-1" source="O4DkN6Ki-hs3kH8LSidX-53" target="O4DkN6Ki-hs3kH8LSidX-10" edge="1">
          <mxGeometry relative="1" as="geometry" />
        </mxCell>
        <mxCell id="O4DkN6Ki-hs3kH8LSidX-4" value="Is the item damaged?" style="rhombus;whiteSpace=wrap;html=1;" parent="WIyWlLk6GJQsqaUBKTNV-1" vertex="1">
          <mxGeometry x="330.5" y="581" width="99" height="65" as="geometry" />
        </mxCell>
        <mxCell id="O4DkN6Ki-hs3kH8LSidX-7" value="Press the action button, grab the item" style="rounded=1;whiteSpace=wrap;html=1;fontSize=12;glass=0;strokeWidth=1;shadow=0;" parent="WIyWlLk6GJQsqaUBKTNV-1" vertex="1">
          <mxGeometry x="306" y="455" width="148" height="51.5" as="geometry" />
        </mxCell>
        <mxCell id="O4DkN6Ki-hs3kH8LSidX-13" value="" style="edgeStyle=orthogonalEdgeStyle;rounded=0;orthogonalLoop=1;jettySize=auto;html=1;" parent="WIyWlLk6GJQsqaUBKTNV-1" source="O4DkN6Ki-hs3kH8LSidX-10" target="O4DkN6Ki-hs3kH8LSidX-12" edge="1">
          <mxGeometry relative="1" as="geometry" />
        </mxCell>
        <mxCell id="O4DkN6Ki-hs3kH8LSidX-10" value="Scan &quot;Damaged&quot;" style="whiteSpace=wrap;html=1;rounded=1;shadow=0;strokeWidth=1;glass=0;" parent="WIyWlLk6GJQsqaUBKTNV-1" vertex="1">
          <mxGeometry x="538" y="584" width="120" height="60" as="geometry" />
        </mxCell>
        <mxCell id="O4DkN6Ki-hs3kH8LSidX-12" value="Place item in damage tote" style="whiteSpace=wrap;html=1;rounded=1;shadow=0;strokeWidth=1;glass=0;" parent="WIyWlLk6GJQsqaUBKTNV-1" vertex="1">
          <mxGeometry x="538" y="450.75" width="120" height="60" as="geometry" />
        </mxCell>
        <mxCell id="O4DkN6Ki-hs3kH8LSidX-14" value="Place item in chute &amp;gt; press corresponding button" style="whiteSpace=wrap;html=1;rounded=1;shadow=0;strokeWidth=1;glass=0;" parent="WIyWlLk6GJQsqaUBKTNV-1" vertex="1">
          <mxGeometry x="103" y="395" width="120" height="60" as="geometry" />
        </mxCell>
        <mxCell id="O4DkN6Ki-hs3kH8LSidX-17" value="" style="endArrow=classic;html=1;exitX=0.5;exitY=0;exitDx=0;exitDy=0;edgeStyle=elbowEdgeStyle;entryX=0;entryY=0.5;entryDx=0;entryDy=0;" parent="WIyWlLk6GJQsqaUBKTNV-1" source="O4DkN6Ki-hs3kH8LSidX-14" target="O4DkN6Ki-hs3kH8LSidX-0" edge="1">
          <mxGeometry width="50" height="50" relative="1" as="geometry">
            <mxPoint x="245" y="653" as="sourcePoint" />
            <mxPoint x="380" y="290" as="targetPoint" />
            <Array as="points">
              <mxPoint x="161" y="389" />
              <mxPoint x="265" y="547" />
            </Array>
          </mxGeometry>
        </mxCell>
        <mxCell id="O4DkN6Ki-hs3kH8LSidX-22" value="" style="edgeStyle=elbowEdgeStyle;rounded=0;orthogonalLoop=1;jettySize=auto;html=1;" parent="WIyWlLk6GJQsqaUBKTNV-1" source="O4DkN6Ki-hs3kH8LSidX-18" target="O4DkN6Ki-hs3kH8LSidX-21" edge="1">
          <mxGeometry relative="1" as="geometry" />
        </mxCell>
        <mxCell id="O4DkN6Ki-hs3kH8LSidX-18" value="Press the button" style="rounded=1;whiteSpace=wrap;html=1;fontSize=12;glass=0;strokeWidth=1;shadow=0;" parent="WIyWlLk6GJQsqaUBKTNV-1" vertex="1">
          <mxGeometry x="556" y="310.24" width="148" height="51.5" as="geometry" />
        </mxCell>
        <mxCell id="O4DkN6Ki-hs3kH8LSidX-21" value="Scan &quot;Tray Empty&quot;" style="whiteSpace=wrap;html=1;rounded=1;shadow=0;strokeWidth=1;glass=0;" parent="WIyWlLk6GJQsqaUBKTNV-1" vertex="1">
          <mxGeometry x="573" y="215" width="120" height="60" as="geometry" />
        </mxCell>
        <mxCell id="O4DkN6Ki-hs3kH8LSidX-23" value="" style="endArrow=classic;html=1;exitX=0;exitY=0.5;exitDx=0;exitDy=0;entryX=0.5;entryY=0;entryDx=0;entryDy=0;edgeStyle=elbowEdgeStyle;elbow=vertical;" parent="WIyWlLk6GJQsqaUBKTNV-1" source="O4DkN6Ki-hs3kH8LSidX-21" target="O4DkN6Ki-hs3kH8LSidX-0" edge="1">
          <mxGeometry width="50" height="50" relative="1" as="geometry">
            <mxPoint x="608" y="485" as="sourcePoint" />
            <mxPoint x="658" y="435" as="targetPoint" />
            <Array as="points">
              <mxPoint x="541" y="245" />
              <mxPoint x="745" y="231" />
              <mxPoint x="752" y="388" />
              <mxPoint x="622" y="260" />
            </Array>
          </mxGeometry>
        </mxCell>
        <mxCell id="O4DkN6Ki-hs3kH8LSidX-16" value="No" style="text;html=1;align=center;verticalAlign=middle;resizable=0;points=[];autosize=1;fillColor=#f8cecc;strokeColor=#b85450;" parent="WIyWlLk6GJQsqaUBKTNV-1" vertex="1">
          <mxGeometry x="282" y="605" width="26" height="18" as="geometry" />
        </mxCell>
        <mxCell id="O4DkN6Ki-hs3kH8LSidX-26" value="" style="edgeStyle=orthogonalEdgeStyle;orthogonalLoop=1;jettySize=auto;html=1;rounded=1;endArrow=none;endFill=0;fillColor=#f8cecc;strokeColor=#b85450;" parent="WIyWlLk6GJQsqaUBKTNV-1" source="O4DkN6Ki-hs3kH8LSidX-4" target="O4DkN6Ki-hs3kH8LSidX-16" edge="1">
          <mxGeometry relative="1" as="geometry">
            <mxPoint x="340" y="614" as="sourcePoint" />
            <mxPoint x="161" y="506.5" as="targetPoint" />
          </mxGeometry>
        </mxCell>
        <mxCell id="O4DkN6Ki-hs3kH8LSidX-6" value="Yes" style="text;html=1;align=center;verticalAlign=middle;resizable=0;points=[];autosize=1;fillColor=#d5e8d4;strokeColor=#82b366;" parent="WIyWlLk6GJQsqaUBKTNV-1" vertex="1">
          <mxGeometry x="365" y="407" width="30" height="18" as="geometry" />
        </mxCell>
        <mxCell id="O4DkN6Ki-hs3kH8LSidX-27" value="" style="edgeStyle=orthogonalEdgeStyle;rounded=0;orthogonalLoop=1;jettySize=auto;html=1;endArrow=none;endFill=0;fillColor=#d5e8d4;strokeColor=#82b366;" parent="WIyWlLk6GJQsqaUBKTNV-1" source="O4DkN6Ki-hs3kH8LSidX-0" target="O4DkN6Ki-hs3kH8LSidX-6" edge="1">
          <mxGeometry relative="1" as="geometry">
            <mxPoint x="380.08333333333326" y="376.93945598417406" as="sourcePoint" />
            <mxPoint x="380" y="455" as="targetPoint" />
          </mxGeometry>
        </mxCell>
        <mxCell id="O4DkN6Ki-hs3kH8LSidX-20" value="No" style="text;html=1;align=center;verticalAlign=middle;resizable=0;points=[];autosize=1;fillColor=#f8cecc;strokeColor=#b85450;" parent="WIyWlLk6GJQsqaUBKTNV-1" vertex="1">
          <mxGeometry x="497" y="326.99" width="26" height="18" as="geometry" />
        </mxCell>
        <mxCell id="O4DkN6Ki-hs3kH8LSidX-28" value="" style="edgeStyle=elbowEdgeStyle;rounded=0;orthogonalLoop=1;jettySize=auto;elbow=vertical;html=1;endArrow=none;endFill=0;fillColor=#f8cecc;strokeColor=#b85450;" parent="WIyWlLk6GJQsqaUBKTNV-1" source="O4DkN6Ki-hs3kH8LSidX-0" target="O4DkN6Ki-hs3kH8LSidX-20" edge="1">
          <mxGeometry relative="1" as="geometry">
            <mxPoint x="464.2294462063917" y="336" as="sourcePoint" />
            <mxPoint x="556" y="336" as="targetPoint" />
          </mxGeometry>
        </mxCell>
        <mxCell id="O4DkN6Ki-hs3kH8LSidX-29" value="" style="endArrow=classic;html=1;exitX=0.5;exitY=0;exitDx=0;exitDy=0;entryX=1;entryY=1;entryDx=0;entryDy=0;edgeStyle=orthogonalEdgeStyle;" parent="WIyWlLk6GJQsqaUBKTNV-1" source="O4DkN6Ki-hs3kH8LSidX-12" target="O4DkN6Ki-hs3kH8LSidX-0" edge="1">
          <mxGeometry width="50" height="50" relative="1" as="geometry">
            <mxPoint x="383" y="548" as="sourcePoint" />
            <mxPoint x="433" y="498" as="targetPoint" />
          </mxGeometry>
        </mxCell>
        <mxCell id="O4DkN6Ki-hs3kH8LSidX-30" value="&lt;div&gt;No&lt;/div&gt;" style="text;html=1;align=center;verticalAlign=middle;resizable=0;points=[];autosize=1;fillColor=#f8cecc;strokeColor=#b85450;" parent="WIyWlLk6GJQsqaUBKTNV-1" vertex="1">
          <mxGeometry x="262" y="194.6" width="26" height="18" as="geometry" />
        </mxCell>
        <mxCell id="O4DkN6Ki-hs3kH8LSidX-31" value="" style="edgeStyle=orthogonalEdgeStyle;rounded=0;html=1;jettySize=auto;orthogonalLoop=1;fontSize=11;endArrow=none;endFill=0;endSize=8;strokeWidth=1;shadow=0;labelBackgroundColor=none;fillColor=#f8cecc;strokeColor=#b85450;" parent="WIyWlLk6GJQsqaUBKTNV-1" source="WIyWlLk6GJQsqaUBKTNV-6" target="O4DkN6Ki-hs3kH8LSidX-30" edge="1">
          <mxGeometry x="0.2" y="44" relative="1" as="geometry">
            <mxPoint as="offset" />
            <mxPoint x="223" y="203.60000000000002" as="sourcePoint" />
            <mxPoint x="273" y="203.60000000000002" as="targetPoint" />
          </mxGeometry>
        </mxCell>
        <mxCell id="O4DkN6Ki-hs3kH8LSidX-34" value="&lt;div&gt;Yes&lt;/div&gt;" style="text;html=1;align=center;verticalAlign=middle;resizable=0;points=[];autosize=1;fillColor=#d5e8d4;strokeColor=#82b366;" parent="WIyWlLk6GJQsqaUBKTNV-1" vertex="1">
          <mxGeometry x="42" y="194.6" width="30" height="18" as="geometry" />
        </mxCell>
        <mxCell id="O4DkN6Ki-hs3kH8LSidX-35" value="" style="edgeStyle=orthogonalEdgeStyle;rounded=1;orthogonalLoop=1;jettySize=auto;html=1;endArrow=none;endFill=0;fillColor=#d5e8d4;strokeColor=#82b366;" parent="WIyWlLk6GJQsqaUBKTNV-1" source="WIyWlLk6GJQsqaUBKTNV-6" target="O4DkN6Ki-hs3kH8LSidX-34" edge="1">
          <mxGeometry relative="1" as="geometry">
            <mxPoint x="107" y="203.60000000000002" as="sourcePoint" />
            <mxPoint x="12" y="203.60000000000002" as="targetPoint" />
          </mxGeometry>
        </mxCell>
        <mxCell id="O4DkN6Ki-hs3kH8LSidX-38" value="" style="edgeStyle=orthogonalEdgeStyle;rounded=1;orthogonalLoop=1;jettySize=auto;html=1;endArrow=classic;endFill=1;fillColor=#d5e8d4;strokeColor=#82b366;" parent="WIyWlLk6GJQsqaUBKTNV-1" source="O4DkN6Ki-hs3kH8LSidX-39" target="O4DkN6Ki-hs3kH8LSidX-14" edge="1">
          <mxGeometry relative="1" as="geometry" />
        </mxCell>
        <mxCell id="O4DkN6Ki-hs3kH8LSidX-37" value="&lt;div&gt;Will the item&lt;/div&gt;&lt;div&gt;fit in the chute?&lt;br&gt;&lt;/div&gt;" style="rhombus;whiteSpace=wrap;html=1;" parent="WIyWlLk6GJQsqaUBKTNV-1" vertex="1">
          <mxGeometry x="81.5" y="574" width="163" height="80" as="geometry" />
        </mxCell>
        <mxCell id="O4DkN6Ki-hs3kH8LSidX-39" value="&lt;div&gt;Yes&lt;/div&gt;" style="text;html=1;align=center;verticalAlign=middle;resizable=0;points=[];autosize=1;fillColor=#d5e8d4;strokeColor=#82b366;" parent="WIyWlLk6GJQsqaUBKTNV-1" vertex="1">
          <mxGeometry x="148" y="510.75" width="30" height="18" as="geometry" />
        </mxCell>
        <mxCell id="O4DkN6Ki-hs3kH8LSidX-41" value="" style="edgeStyle=orthogonalEdgeStyle;rounded=1;orthogonalLoop=1;jettySize=auto;html=1;endArrow=none;endFill=0;fillColor=#d5e8d4;strokeColor=#82b366;" parent="WIyWlLk6GJQsqaUBKTNV-1" source="O4DkN6Ki-hs3kH8LSidX-37" target="O4DkN6Ki-hs3kH8LSidX-39" edge="1">
          <mxGeometry relative="1" as="geometry">
            <mxPoint x="163" y="574" as="sourcePoint" />
            <mxPoint x="163" y="455" as="targetPoint" />
          </mxGeometry>
        </mxCell>
        <mxCell id="O4DkN6Ki-hs3kH8LSidX-42" value="Place item in tote under wall.&lt;br&gt;Take the green block from the tote and place it in the wall" style="whiteSpace=wrap;html=1;rounded=1;shadow=0;strokeWidth=1;glass=0;" parent="WIyWlLk6GJQsqaUBKTNV-1" vertex="1">
          <mxGeometry x="-97" y="450.75" width="120" height="82.75" as="geometry" />
        </mxCell>
        <mxCell id="O4DkN6Ki-hs3kH8LSidX-43" value="" style="endArrow=classic;html=1;exitX=0;exitY=0.5;exitDx=0;exitDy=0;entryX=0.5;entryY=1;entryDx=0;entryDy=0;edgeStyle=elbowEdgeStyle;elbow=vertical;fillColor=#f8cecc;strokeColor=#b85450;" parent="WIyWlLk6GJQsqaUBKTNV-1" source="O4DkN6Ki-hs3kH8LSidX-44" target="O4DkN6Ki-hs3kH8LSidX-42" edge="1">
          <mxGeometry width="50" height="50" relative="1" as="geometry">
            <mxPoint x="212" y="509" as="sourcePoint" />
            <mxPoint x="262" y="459" as="targetPoint" />
            <Array as="points">
              <mxPoint x="-50" y="614" />
            </Array>
          </mxGeometry>
        </mxCell>
        <mxCell id="O4DkN6Ki-hs3kH8LSidX-44" value="No" style="text;html=1;align=center;verticalAlign=middle;resizable=0;points=[];autosize=1;fillColor=#f8cecc;strokeColor=#b85450;" parent="WIyWlLk6GJQsqaUBKTNV-1" vertex="1">
          <mxGeometry x="-3" y="605" width="26" height="18" as="geometry" />
        </mxCell>
        <mxCell id="O4DkN6Ki-hs3kH8LSidX-45" value="" style="endArrow=none;html=1;exitX=0;exitY=0.5;exitDx=0;exitDy=0;edgeStyle=elbowEdgeStyle;elbow=vertical;endFill=0;rounded=0;entryX=1.019;entryY=0.494;entryDx=0;entryDy=0;entryPerimeter=0;fillColor=#f8cecc;strokeColor=#b85450;" parent="WIyWlLk6GJQsqaUBKTNV-1" source="O4DkN6Ki-hs3kH8LSidX-37" target="O4DkN6Ki-hs3kH8LSidX-44" edge="1">
          <mxGeometry width="50" height="50" relative="1" as="geometry">
            <mxPoint x="81.5" y="614" as="sourcePoint" />
            <mxPoint x="31" y="617" as="targetPoint" />
            <Array as="points">
              <mxPoint x="30" y="614" />
              <mxPoint x="21" y="637" />
              <mxPoint x="14" y="614" />
            </Array>
          </mxGeometry>
        </mxCell>
        <mxCell id="O4DkN6Ki-hs3kH8LSidX-47" value="" style="endArrow=classic;html=1;exitX=0.5;exitY=0;exitDx=0;exitDy=0;entryX=0;entryY=0.5;entryDx=0;entryDy=0;edgeStyle=elbowEdgeStyle;" parent="WIyWlLk6GJQsqaUBKTNV-1" source="O4DkN6Ki-hs3kH8LSidX-42" target="O4DkN6Ki-hs3kH8LSidX-0" edge="1">
          <mxGeometry width="50" height="50" relative="1" as="geometry">
            <mxPoint x="42" y="411" as="sourcePoint" />
            <mxPoint x="277.1904761904762" y="292" as="targetPoint" />
            <Array as="points">
              <mxPoint x="-37" y="392" />
              <mxPoint x="-91" y="378" />
            </Array>
          </mxGeometry>
        </mxCell>
        <mxCell id="O4DkN6Ki-hs3kH8LSidX-48" value="" style="endArrow=classic;html=1;exitX=0.5;exitY=0;exitDx=0;exitDy=0;entryX=0.5;entryY=0;entryDx=0;entryDy=0;edgeStyle=elbowEdgeStyle;elbow=vertical;" parent="WIyWlLk6GJQsqaUBKTNV-1" source="WIyWlLk6GJQsqaUBKTNV-12" target="WIyWlLk6GJQsqaUBKTNV-6" edge="1">
          <mxGeometry width="50" height="50" relative="1" as="geometry">
            <mxPoint x="153" y="304" as="sourcePoint" />
            <mxPoint x="203" y="254" as="targetPoint" />
            <Array as="points">
              <mxPoint x="83" y="139" />
            </Array>
          </mxGeometry>
        </mxCell>
        <mxCell id="O4DkN6Ki-hs3kH8LSidX-53" value="&lt;div&gt;Yes&lt;/div&gt;" style="text;html=1;align=center;verticalAlign=middle;resizable=0;points=[];autosize=1;fillColor=#d5e8d4;strokeColor=#82b366;" parent="WIyWlLk6GJQsqaUBKTNV-1" vertex="1">
          <mxGeometry x="464.25" y="604.5" width="30" height="18" as="geometry" />
        </mxCell>
        <mxCell id="O4DkN6Ki-hs3kH8LSidX-55" value="" style="edgeStyle=elbowEdgeStyle;rounded=0;orthogonalLoop=1;jettySize=auto;elbow=vertical;html=1;endArrow=none;endFill=0;fillColor=#d5e8d4;strokeColor=#82b366;" parent="WIyWlLk6GJQsqaUBKTNV-1" source="O4DkN6Ki-hs3kH8LSidX-4" target="O4DkN6Ki-hs3kH8LSidX-53" edge="1">
          <mxGeometry relative="1" as="geometry">
            <mxPoint x="428.7384615384615" y="614" as="sourcePoint" />
            <mxPoint x="493" y="614" as="targetPoint" />
          </mxGeometry>
        </mxCell>
      </root>
    </mxGraphModel>
  </diagram>
</mxfile>
